<svg width="94" height="43" viewBox="0 0 94 43" fill="none" xmlns="http://www.w3.org/2000/svg">
<path d="M9.56354 10.7968C9.58092 10.7968 9.58961 10.8229 9.58961 10.875C9.58961 10.9272 9.58092 10.9532 9.56354 10.9532H7.80391C7.68226 10.9532 7.57798 10.9228 7.49109 10.862C7.40419 10.7925 7.25213 10.6144 7.03489 10.3276C6.81765 10.0408 6.444 9.51947 5.91394 8.76348L5.75752 8.5419C5.38387 8.01184 5.11015 7.64253 4.93636 7.43398C4.76257 7.21674 4.58009 7.06468 4.38892 6.97778C4.20644 6.89088 3.96313 6.84744 3.659 6.84744H3.54169V9.89747C3.54169 10.1582 3.56776 10.3537 3.6199 10.484C3.67203 10.6057 3.77196 10.6882 3.91968 10.7317C4.0761 10.7751 4.31506 10.7968 4.63657 10.7968C4.65395 10.7968 4.66264 10.8229 4.66264 10.875C4.66264 10.9272 4.65395 10.9532 4.63657 10.9532C4.34982 10.9532 4.12389 10.9489 3.95879 10.9402L2.98121 10.9272L2.06881 10.9402C1.9124 10.9489 1.69082 10.9532 1.40406 10.9532C1.38668 10.9532 1.37799 10.9272 1.37799 10.875C1.37799 10.8229 1.38668 10.7968 1.40406 10.7968C1.72558 10.7968 1.96019 10.7751 2.10792 10.7317C2.25564 10.6882 2.35557 10.6057 2.4077 10.484C2.46853 10.3537 2.49894 10.1582 2.49894 9.89747V3.86258C2.49894 3.60189 2.47288 3.41072 2.42074 3.28907C2.3686 3.16741 2.26867 3.08486 2.12095 3.04142C1.97323 2.98928 1.73861 2.96321 1.4171 2.96321C1.39972 2.96321 1.39103 2.93714 1.39103 2.885C1.39103 2.83287 1.39972 2.8068 1.4171 2.8068L2.08185 2.81983C2.44681 2.83721 2.7466 2.8459 2.98121 2.8459C3.2419 2.8459 3.5721 2.83721 3.97182 2.81983L4.63657 2.8068C4.65395 2.8068 4.66264 2.83287 4.66264 2.885C4.66264 2.93714 4.65395 2.96321 4.63657 2.96321C4.32375 2.96321 4.08913 2.98928 3.93272 3.04142C3.785 3.09355 3.68072 3.18479 3.6199 3.31514C3.56776 3.43679 3.54169 3.62796 3.54169 3.88865V6.63889C4.01093 6.62151 4.30203 6.61282 4.41499 6.61282H4.58444L6.09642 4.51429C6.47007 4.00161 6.65689 3.61493 6.65689 3.35424C6.65689 3.09355 6.45269 2.96321 6.04428 2.96321C6.0269 2.96321 6.01821 2.93714 6.01821 2.885C6.01821 2.83287 6.0269 2.8068 6.04428 2.8068L6.61779 2.81983C6.96537 2.83721 7.28254 2.8459 7.56929 2.8459C7.88212 2.8459 8.20363 2.83721 8.53383 2.81983L9.02914 2.8068C9.05521 2.8068 9.06824 2.83287 9.06824 2.885C9.06824 2.93714 9.05521 2.96321 9.02914 2.96321C8.60335 2.96321 8.19494 3.08486 7.80391 3.32817C7.41288 3.57148 7.0262 3.93644 6.64386 4.42305L4.89726 6.63889C5.15795 6.66496 5.37518 6.73882 5.54897 6.86047C5.73145 6.97344 5.90959 7.13854 6.08338 7.35578C6.25717 7.56432 6.54393 7.94666 6.94365 8.5028C7.36074 9.09368 7.69095 9.53685 7.93425 9.8323C8.17756 10.1277 8.42956 10.3624 8.69025 10.5361C8.95093 10.7013 9.24203 10.7881 9.56354 10.7968Z" fill="#DDDDDD"/>
<path d="M10.3867 11.1097C10.1782 11.1097 10.0131 11.0619 9.89144 10.9663C9.76978 10.8794 9.70896 10.749 9.70896 10.5753C9.70896 10.2537 9.90447 10.093 10.2955 10.093H10.5692C11.0558 10.093 11.4729 9.7845 11.8205 9.16755C12.1768 8.55059 12.4418 7.78156 12.6156 6.86047C12.7981 5.93938 12.8893 5.03567 12.8893 4.14933C12.8893 3.73224 12.8024 3.43245 12.6286 3.24997C12.4635 3.0588 12.1247 2.96321 11.612 2.96321C11.5859 2.96321 11.5729 2.93714 11.5729 2.885C11.5729 2.83287 11.5859 2.8068 11.612 2.8068H17.9597C17.9771 2.8068 17.9857 2.83287 17.9857 2.885C17.9857 2.93714 17.9771 2.96321 17.9597 2.96321C17.6382 2.96321 17.3992 2.98928 17.2428 3.04142C17.0951 3.08486 16.9908 3.16741 16.93 3.28907C16.8778 3.41072 16.8518 3.60189 16.8518 3.86258V9.89747C16.8518 10.1582 16.8778 10.3537 16.93 10.484C16.9908 10.6057 17.0951 10.6882 17.2428 10.7317C17.3992 10.7751 17.6382 10.7968 17.9597 10.7968C17.9771 10.7968 17.9857 10.8229 17.9857 10.875C17.9857 10.9272 17.9771 10.9532 17.9597 10.9532C17.6816 10.9532 17.46 10.9489 17.2949 10.9402L16.3695 10.9272L15.405 10.9402C15.2485 10.9489 15.0226 10.9532 14.7272 10.9532C14.7098 10.9532 14.7011 10.9272 14.7011 10.875C14.7011 10.8229 14.7098 10.7968 14.7272 10.7968C15.0574 10.7968 15.2963 10.7751 15.4441 10.7317C15.5918 10.6882 15.6917 10.6057 15.7438 10.484C15.796 10.3624 15.8221 10.1668 15.8221 9.89747V3.95382C15.8221 3.65837 15.8047 3.46286 15.7699 3.36727C15.7438 3.27169 15.6743 3.21086 15.5614 3.18479C15.4571 3.15873 15.2399 3.14569 14.9096 3.14569H14.1928C13.9321 3.14569 13.7366 3.16741 13.6062 3.21086C13.4759 3.25431 13.3803 3.34555 13.3195 3.48458C13.2586 3.62362 13.2282 3.8452 13.2282 4.14933C13.2282 5.04436 13.1413 6.02628 12.9675 7.09509C12.8024 8.1639 12.507 9.10237 12.0812 9.9105C11.6554 10.7099 11.0906 11.1097 10.3867 11.1097Z" fill="#DDDDDD"/>
<path d="M26.4943 2.8068C26.5204 2.8068 26.5334 2.83287 26.5334 2.885C26.5334 2.93714 26.5204 2.96321 26.4943 2.96321C26.2597 2.96321 26.0294 3.0588 25.8035 3.24997C25.5776 3.43245 25.3907 3.68444 25.243 4.00596L22.4797 10.1191C22.3233 10.4666 22.1452 10.7186 21.9453 10.875C21.7542 11.0315 21.5065 11.1097 21.2024 11.1097C20.9156 11.1097 20.6767 11.0445 20.4855 10.9141C20.2943 10.7838 20.1987 10.61 20.1987 10.3928C20.1987 10.2364 20.2509 10.1017 20.3551 9.98871C20.4594 9.86705 20.6028 9.80623 20.7853 9.80623C20.9504 9.80623 21.072 9.84967 21.1502 9.93657C21.2371 10.0235 21.3153 10.1451 21.3849 10.3015C21.4283 10.4058 21.4718 10.4884 21.5152 10.5492C21.5586 10.6013 21.6151 10.6274 21.6846 10.6274C21.7715 10.6274 21.8541 10.5839 21.9323 10.497C22.0105 10.4102 22.0931 10.2668 22.1799 10.0669L22.5449 9.25879L19.6904 3.88865C19.4992 3.54107 19.3254 3.3021 19.169 3.17176C19.0213 3.03273 18.8214 2.96321 18.5694 2.96321C18.5521 2.96321 18.5434 2.93714 18.5434 2.885C18.5434 2.83287 18.5521 2.8068 18.5694 2.8068L19.0387 2.81983C19.2994 2.83721 19.5644 2.8459 19.8338 2.8459C20.2422 2.8459 20.6376 2.83721 21.0199 2.81983C21.1502 2.81114 21.311 2.8068 21.5022 2.8068C21.5282 2.8068 21.5413 2.83287 21.5413 2.885C21.5413 2.93714 21.5282 2.96321 21.5022 2.96321C20.9373 2.96321 20.6549 3.10659 20.6549 3.39334C20.6549 3.48893 20.694 3.61058 20.7722 3.7583L23.0663 8.0857L24.9172 3.96685C24.9867 3.82782 25.0214 3.68444 25.0214 3.53672C25.0214 3.15438 24.6956 2.96321 24.0439 2.96321C24.0178 2.96321 24.0048 2.93714 24.0048 2.885C24.0048 2.83287 24.0178 2.8068 24.0439 2.8068L24.5913 2.81983C24.9041 2.83721 25.1822 2.8459 25.4255 2.8459C25.5819 2.8459 25.7731 2.83721 25.999 2.81983L26.4943 2.8068Z" fill="#DDDDDD"/>
<path d="M30.1597 6.35213C31.0808 6.35213 31.8194 6.52592 32.3755 6.87351C32.9317 7.22109 33.2097 7.77287 33.2097 8.52886C33.2097 9.00679 33.0924 9.43258 32.8578 9.80623C32.6319 10.1799 32.3104 10.4753 31.8933 10.6926C31.4762 10.9011 31.0026 11.0054 30.4725 11.0054C30.2379 11.0054 29.9642 10.9923 29.6514 10.9663C29.521 10.9576 29.3646 10.9489 29.1821 10.9402C28.9996 10.9315 28.7998 10.9272 28.5825 10.9272L27.6701 10.9402C27.505 10.9489 27.2835 10.9532 27.0054 10.9532C26.9793 10.9532 26.9663 10.9272 26.9663 10.875C26.9663 10.8229 26.9793 10.7968 27.0054 10.7968C27.3182 10.7968 27.5485 10.7751 27.6962 10.7317C27.8439 10.6882 27.9439 10.6057 27.996 10.484C28.0481 10.3537 28.0742 10.1582 28.0742 9.89747V3.86258C28.0742 3.60189 28.0481 3.41072 27.996 3.28907C27.9439 3.16741 27.8439 3.08486 27.6962 3.04142C27.5572 2.98928 27.3313 2.96321 27.0184 2.96321C27.001 2.96321 26.9924 2.93714 26.9924 2.885C26.9924 2.83287 27.001 2.8068 27.0184 2.8068H32.2582C32.3364 2.8068 32.3842 2.81983 32.4016 2.8459C32.4277 2.87197 32.4407 2.92845 32.4407 3.01535L32.5971 4.77498C32.5971 4.80105 32.571 4.81843 32.5189 4.82712C32.4755 4.82712 32.4494 4.81408 32.4407 4.78801C32.3364 4.24057 32.1322 3.81913 31.8281 3.52369C31.5326 3.22824 31.1677 3.08052 30.7332 3.08052H30.0554C29.786 3.08052 29.5862 3.10659 29.4558 3.15873C29.3255 3.20217 29.2343 3.28472 29.1821 3.40638C29.13 3.52803 29.1039 3.70617 29.1039 3.94078V6.4173C29.4949 6.37386 29.8469 6.35213 30.1597 6.35213ZM30.2249 10.7447C30.8766 10.7447 31.3502 10.5883 31.6456 10.2755C31.9497 9.96264 32.1018 9.4934 32.1018 8.86776C32.1018 8.0857 31.902 7.52088 31.5022 7.1733C31.1112 6.82571 30.5464 6.65192 29.8078 6.65192C29.5558 6.65192 29.3212 6.6693 29.1039 6.70406V9.89747C29.1039 10.1842 29.1778 10.3971 29.3255 10.5361C29.4819 10.6752 29.7817 10.7447 30.2249 10.7447Z" fill="#DDDDDD"/>
<path d="M43.3284 10.7968C43.3545 10.7968 43.3675 10.8229 43.3675 10.875C43.3675 10.9272 43.3545 10.9532 43.3284 10.9532C43.0504 10.9532 42.8288 10.9489 42.6637 10.9402L41.7252 10.9272L40.6955 10.9402C40.5478 10.9489 40.3436 10.9532 40.0829 10.9532C40.0568 10.9532 40.0438 10.9272 40.0438 10.875C40.0438 10.8229 40.0568 10.7968 40.0829 10.7968C40.4131 10.7968 40.6564 10.7751 40.8128 10.7317C40.9692 10.6882 41.0735 10.6057 41.1256 10.484C41.1778 10.3537 41.2038 10.1582 41.2038 9.89747V6.86047H36.4593V9.89747C36.4593 10.1582 36.4854 10.3537 36.5376 10.484C36.5897 10.6057 36.694 10.6882 36.8504 10.7317C37.0068 10.7751 37.2501 10.7968 37.5803 10.7968C37.5977 10.7968 37.6064 10.8229 37.6064 10.875C37.6064 10.9272 37.5977 10.9532 37.5803 10.9532C37.3022 10.9532 37.0806 10.9489 36.9155 10.9402L35.9119 10.9272L34.9865 10.9402C34.8214 10.9489 34.5954 10.9532 34.3087 10.9532C34.2913 10.9532 34.2826 10.9272 34.2826 10.875C34.2826 10.8229 34.2913 10.7968 34.3087 10.7968C34.6302 10.7968 34.8648 10.7751 35.0125 10.7317C35.1689 10.6882 35.2732 10.6057 35.3254 10.484C35.3862 10.3537 35.4166 10.1582 35.4166 9.89747V3.86258C35.4166 3.60189 35.3905 3.41072 35.3384 3.28907C35.2863 3.16741 35.1863 3.08486 35.0386 3.04142C34.8909 2.98928 34.6563 2.96321 34.3348 2.96321C34.3087 2.96321 34.2956 2.93714 34.2956 2.885C34.2956 2.83287 34.3087 2.8068 34.3348 2.8068L34.9995 2.81983C35.3645 2.83721 35.6686 2.8459 35.9119 2.8459C36.19 2.8459 36.5289 2.83721 36.9286 2.81983L37.5803 2.8068C37.5977 2.8068 37.6064 2.83287 37.6064 2.885C37.6064 2.93714 37.5977 2.96321 37.5803 2.96321C37.2588 2.96321 37.0198 2.98928 36.8634 3.04142C36.707 3.09355 36.5984 3.18479 36.5376 3.31514C36.4854 3.43679 36.4593 3.62796 36.4593 3.88865V6.56068H41.2038V3.88865C41.2038 3.62796 41.1734 3.43679 41.1126 3.31514C41.0605 3.18479 40.9562 3.09355 40.7998 3.04142C40.652 2.98928 40.4131 2.96321 40.0829 2.96321C40.0568 2.96321 40.0438 2.93714 40.0438 2.885C40.0438 2.83287 40.0568 2.8068 40.0829 2.8068L40.6955 2.81983C41.0952 2.83721 41.4385 2.8459 41.7252 2.8459C41.9685 2.8459 42.2813 2.83721 42.6637 2.81983L43.3284 2.8068C43.3545 2.8068 43.3675 2.83287 43.3675 2.885C43.3675 2.93714 43.3545 2.96321 43.3284 2.96321C43.0069 2.96321 42.7723 2.98928 42.6246 3.04142C42.4769 3.08486 42.3726 3.16741 42.3118 3.28907C42.2596 3.41072 42.2335 3.60189 42.2335 3.86258V9.89747C42.2335 10.1582 42.2596 10.3537 42.3118 10.484C42.3726 10.6057 42.4769 10.6882 42.6246 10.7317C42.7723 10.7751 43.0069 10.7968 43.3284 10.7968Z" fill="#DDDDDD"/>
<path d="M47.874 6.35213C49.6641 6.35213 50.5591 7.06468 50.5591 8.48976C50.5591 8.98506 50.4418 9.42389 50.2072 9.80623C49.9813 10.1886 49.6597 10.484 49.2426 10.6926C48.8256 10.9011 48.352 11.0054 47.8219 11.0054C47.6047 11.0054 47.344 10.9923 47.0399 10.9663C46.9182 10.9576 46.7574 10.9489 46.5576 10.9402C46.3664 10.9315 46.1448 10.9272 45.8928 10.9272L45.0456 10.9402C44.8718 10.9489 44.6415 10.9532 44.3548 10.9532C44.3287 10.9532 44.3157 10.9272 44.3157 10.875C44.3157 10.8229 44.3287 10.7968 44.3548 10.7968C44.6763 10.7881 44.9066 10.7664 45.0456 10.7317C45.1846 10.6882 45.2802 10.6057 45.3324 10.484C45.3932 10.3624 45.4236 10.1668 45.4236 9.89747V3.86258C45.4236 3.5932 45.3975 3.40203 45.3454 3.28907C45.2933 3.16741 45.1977 3.08486 45.0586 3.04142C44.9196 2.99797 44.6893 2.9719 44.3678 2.96321C44.3504 2.96321 44.3417 2.93714 44.3417 2.885C44.3417 2.83287 44.3504 2.8068 44.3678 2.8068L44.9935 2.81983C45.3758 2.83721 45.6843 2.8459 45.9189 2.8459C46.1796 2.8459 46.5098 2.83721 46.9095 2.81983L47.5873 2.8068C47.6047 2.8068 47.6134 2.83287 47.6134 2.885C47.6134 2.93714 47.6047 2.96321 47.5873 2.96321C47.2571 2.9719 47.0138 2.99797 46.8574 3.04142C46.7096 3.08486 46.6054 3.17176 46.5445 3.3021C46.4837 3.42376 46.4533 3.61927 46.4533 3.88865V6.48248C46.9747 6.39558 47.4483 6.35213 47.874 6.35213ZM47.5743 10.7447C48.2434 10.7447 48.7213 10.5883 49.008 10.2755C49.3035 9.95395 49.4512 9.4543 49.4512 8.77652C49.4512 8.02053 49.2904 7.47743 48.9689 7.14723C48.6474 6.81702 48.1608 6.65192 47.5091 6.65192C47.1963 6.65192 46.8443 6.68668 46.4533 6.7562V9.89747C46.4533 10.1842 46.5272 10.3971 46.6749 10.5361C46.8226 10.6752 47.1224 10.7447 47.5743 10.7447ZM53.3745 9.89747C53.3745 10.1582 53.4006 10.3537 53.4527 10.484C53.5049 10.6057 53.6005 10.6882 53.7395 10.7317C53.8872 10.7751 54.1175 10.7968 54.4303 10.7968C54.4477 10.7968 54.4564 10.8229 54.4564 10.875C54.4564 10.9272 54.4477 10.9532 54.4303 10.9532C54.1522 10.9532 53.935 10.9489 53.7786 10.9402L52.8401 10.9272L51.9277 10.9402C51.7626 10.9489 51.5367 10.9532 51.2499 10.9532C51.2326 10.9532 51.2239 10.9272 51.2239 10.875C51.2239 10.8229 51.2326 10.7968 51.2499 10.7968C51.5628 10.7968 51.793 10.7751 51.9408 10.7317C52.0885 10.6882 52.1884 10.6057 52.2405 10.484C52.2927 10.3537 52.3187 10.1582 52.3187 9.89747V3.86258C52.3187 3.60189 52.2927 3.41072 52.2405 3.28907C52.1884 3.16741 52.0885 3.08486 51.9408 3.04142C51.793 2.98928 51.5628 2.96321 51.2499 2.96321C51.2326 2.96321 51.2239 2.93714 51.2239 2.885C51.2239 2.83287 51.2326 2.8068 51.2499 2.8068L51.9277 2.81983C52.3101 2.83721 52.6142 2.8459 52.8401 2.8459C53.0921 2.8459 53.4093 2.83721 53.7916 2.81983L54.4303 2.8068C54.4477 2.8068 54.4564 2.83287 54.4564 2.885C54.4564 2.93714 54.4477 2.96321 54.4303 2.96321C54.1262 2.96321 53.9002 2.98928 53.7525 3.04142C53.6048 3.09355 53.5049 3.18479 53.4527 3.31514C53.4006 3.43679 53.3745 3.62796 53.3745 3.88865V9.89747Z" fill="#DDDDDD"/>
<path d="M64.3404 10.7968C64.3577 10.7968 64.3664 10.8229 64.3664 10.875C64.3664 10.9272 64.3577 10.9532 64.3404 10.9532C64.0536 10.9532 63.8277 10.9489 63.6626 10.9402L62.7241 10.9272L61.7074 10.9402C61.551 10.9489 61.3425 10.9532 61.0818 10.9532C61.0557 10.9532 61.0427 10.9272 61.0427 10.875C61.0427 10.8229 61.0557 10.7968 61.0818 10.7968C61.412 10.7968 61.6553 10.7751 61.8117 10.7317C61.9681 10.6882 62.0724 10.6057 62.1245 10.484C62.1767 10.3537 62.2027 10.1582 62.2027 9.89747V4.67071L57.6147 9.55857V9.89747C57.6147 10.1582 57.6407 10.3537 57.6929 10.484C57.745 10.6057 57.8493 10.6882 58.0057 10.7317C58.1621 10.7751 58.4054 10.7968 58.7356 10.7968C58.753 10.7968 58.7617 10.8229 58.7617 10.875C58.7617 10.9272 58.753 10.9532 58.7356 10.9532C58.4575 10.9532 58.236 10.9489 58.0709 10.9402L57.0672 10.9272L56.1418 10.9402C55.9767 10.9489 55.7507 10.9532 55.464 10.9532C55.4466 10.9532 55.4379 10.9272 55.4379 10.875C55.4379 10.8229 55.4466 10.7968 55.464 10.7968C55.7855 10.7968 56.0201 10.7751 56.1678 10.7317C56.3243 10.6882 56.4285 10.6057 56.4807 10.484C56.5415 10.3537 56.5719 10.1582 56.5719 9.89747V3.86258C56.5719 3.60189 56.5458 3.41072 56.4937 3.28907C56.4416 3.16741 56.3416 3.08486 56.1939 3.04142C56.0462 2.98928 55.8116 2.96321 55.4901 2.96321C55.464 2.96321 55.451 2.93714 55.451 2.885C55.451 2.83287 55.464 2.8068 55.4901 2.8068L56.1548 2.81983C56.5198 2.83721 56.8239 2.8459 57.0672 2.8459C57.3453 2.8459 57.6842 2.83721 58.0839 2.81983L58.7356 2.8068C58.753 2.8068 58.7617 2.83287 58.7617 2.885C58.7617 2.93714 58.753 2.96321 58.7356 2.96321C58.4141 2.96321 58.1751 2.98928 58.0187 3.04142C57.8623 3.09355 57.7537 3.18479 57.6929 3.31514C57.6407 3.43679 57.6147 3.62796 57.6147 3.88865V9.10237L62.2027 4.20147V3.88865C62.2027 3.62796 62.1723 3.43679 62.1115 3.31514C62.0594 3.18479 61.9551 3.09355 61.7987 3.04142C61.6509 2.98928 61.412 2.96321 61.0818 2.96321C61.0557 2.96321 61.0427 2.93714 61.0427 2.885C61.0427 2.83287 61.0557 2.8068 61.0818 2.8068L61.7074 2.81983C62.1071 2.83721 62.446 2.8459 62.7241 2.8459C62.9674 2.8459 63.2802 2.83721 63.6626 2.81983L64.3404 2.8068C64.3577 2.8068 64.3664 2.83287 64.3664 2.885C64.3664 2.93714 64.3577 2.96321 64.3404 2.96321C64.0188 2.96321 63.7842 2.98928 63.6365 3.04142C63.4888 3.08486 63.3845 3.16741 63.3237 3.28907C63.2715 3.41072 63.2455 3.60189 63.2455 3.86258V9.89747C63.2455 10.1582 63.2715 10.3537 63.3237 10.484C63.3845 10.6057 63.4888 10.6882 63.6365 10.7317C63.7842 10.7751 64.0188 10.7968 64.3404 10.7968ZM59.9087 2.02474C60.3258 2.02474 60.6169 1.75971 60.782 1.22965C60.8515 1.00372 60.921 0.838617 60.9905 0.734343C61.0601 0.630068 61.1774 0.57793 61.3425 0.57793C61.4815 0.57793 61.5858 0.617033 61.6553 0.695239C61.7335 0.773445 61.7726 0.87772 61.7726 1.00806C61.7726 1.21661 61.6857 1.41647 61.5119 1.60764C61.3381 1.79012 61.1078 1.93784 60.8211 2.05081C60.5343 2.15508 60.2345 2.20722 59.9217 2.20722C59.6089 2.20722 59.3091 2.15074 59.0224 2.03777C58.7443 1.92481 58.5184 1.77709 58.3446 1.59461C58.1708 1.41213 58.0839 1.21661 58.0839 1.00806C58.0839 0.87772 58.1186 0.773445 58.1882 0.695239C58.2664 0.617033 58.375 0.57793 58.514 0.57793C58.6878 0.57793 58.8095 0.630068 58.879 0.734343C58.9485 0.838617 59.018 1.00372 59.0875 1.22965C59.1484 1.46426 59.2396 1.65543 59.3613 1.80316C59.4916 1.95088 59.6741 2.02474 59.9087 2.02474Z" fill="#DDDDDD"/>
<path d="M1.20482 37.0117H2.00363C2.53618 37.0117 3.06872 36.7938 3.60127 36.3581C4.13381 35.9062 4.63408 35.1881 5.10208 34.2037C5.53779 33.2838 5.87669 32.1784 6.11875 30.8874C6.36082 29.5964 6.55447 27.6598 6.69971 25.0778L7.0144 19.8734L4.4485 18.8083V18.2516H18.6094V18.7841L16.3581 19.123V37.0117H18.4399L18.803 42.9423H18.0768L15.5593 37.6168H4.0854L1.56791 42.9423H0.841717L1.20482 37.0117ZM13.6954 37.0117V18.8567H7.74059L7.35329 25.0778C7.17577 27.7405 6.96598 29.7335 6.72392 31.0568C6.48185 32.364 6.15103 33.4936 5.73145 34.4458C5.47324 35.0267 5.1989 35.5108 4.90842 35.8982C4.63408 36.2693 4.38395 36.5517 4.15802 36.7454C3.93209 36.939 3.81913 37.0278 3.81913 37.0117H13.6954Z" fill="#DDDDDD"/>
<path d="M30.2117 38.101C28.4527 38.101 26.8792 37.6733 25.4914 36.818C24.1036 35.9627 23.0223 34.7685 22.2477 33.2354C21.4731 31.6862 21.0858 29.9191 21.0858 27.9342C21.0858 25.9492 21.4731 24.1902 22.2477 22.6572C23.0223 21.1079 24.1036 19.9057 25.4914 19.0504C26.8792 18.1951 28.4527 17.7674 30.2117 17.7674C31.9707 17.7674 33.5441 18.1951 34.932 19.0504C36.3198 19.9057 37.401 21.1079 38.1756 22.6572C38.9503 24.1902 39.3376 25.9492 39.3376 27.9342C39.3376 29.9191 38.9503 31.6862 38.1756 33.2354C37.401 34.7685 36.3198 35.9627 34.932 36.818C33.5441 37.6733 31.9707 38.101 30.2117 38.101ZM30.2117 37.5442C31.3736 37.5442 32.4145 37.2376 33.3343 36.6244C34.2703 36.0111 35.0046 35.1235 35.5371 33.9616C36.0697 32.7836 36.3359 31.3957 36.3359 29.7981V26.0703C36.3359 24.4726 36.0697 23.0929 35.5371 21.931C35.0046 20.7529 34.2703 19.8573 33.3343 19.244C32.4145 18.6308 31.3736 18.3242 30.2117 18.3242C29.0336 18.3242 27.9847 18.6308 27.0648 19.244C26.145 19.8573 25.4188 20.7529 24.8862 21.931C24.3537 23.0929 24.0874 24.4726 24.0874 26.0703V29.7981C24.0874 31.3957 24.3537 32.7836 24.8862 33.9616C25.4188 35.1235 26.145 36.0111 27.0648 36.6244C27.9847 37.2376 29.0336 37.5442 30.2117 37.5442Z" fill="#DDDDDD"/>
<path d="M51.6903 37.8589L44.4767 19.123V36.1402L46.8006 37.1085V37.6168H41.6204V37.1085L43.8958 36.1402V19.123L41.6688 18.7841V18.2516H47.0184L53.0943 33.7922L59.2912 18.2516H64.1809V18.7841L61.9539 19.123V36.7454L64.1809 37.1085V37.6168H57.0642V37.1085L59.2912 36.7454V19.8492L52.126 37.8589H51.6903Z" fill="#DDDDDD"/>
<path d="M72.5723 32.814L81.3027 23.9181C83.5922 21.5458 85.3301 19.2425 86.5162 17.0082C87.7299 14.7463 88.3367 12.4154 88.3367 10.0156C88.3367 7.58815 87.8126 5.82276 86.7644 4.71938C85.7438 3.58843 84.3508 3.02295 82.5854 3.02295C81.2062 3.02295 80.0063 3.39534 78.9857 4.14011C77.965 4.88489 77.4547 5.86413 77.4547 7.07784C77.4547 8.53981 78.1857 9.62939 79.6477 10.3466C79.6477 11.3396 79.3443 12.0982 78.7374 12.6223C78.1305 13.1464 77.4134 13.4084 76.5858 13.4084C75.7031 13.4084 74.9446 13.0912 74.3101 12.4568C73.6757 11.7948 73.3585 10.8983 73.3585 9.76731C73.3585 8.27776 73.8136 6.95371 74.7239 5.79517C75.6342 4.60905 76.8479 3.69876 78.365 3.06432C79.8821 2.4023 81.5096 2.07129 83.2474 2.07129C86.6127 2.07129 89.1091 2.87123 90.7366 4.47113C92.364 6.04343 93.1778 8.12605 93.1778 10.719C93.1778 12.2913 92.8468 13.7395 92.1848 15.0635C91.5503 16.36 90.778 17.4909 89.8677 18.4564C88.985 19.4218 87.7713 20.5804 86.2265 21.932L85.068 22.925L75.179 31.6555H90.6124L92.3089 25.5317H93.3847V36H72.5723V32.814Z" fill="#A68E52"/>
<path d="M32.1892 27.5991C32.1892 28.6275 31.3556 29.4611 30.3272 29.4611C29.2988 29.4611 28.4651 28.6275 28.4651 27.5991C28.4651 26.5707 29.2988 25.737 30.3272 25.737C31.3556 25.737 32.1892 26.5707 32.1892 27.5991Z" fill="#A68E52"/>
</svg>
